solid ASCII
  facet normal 0.000000e+00 -1.000000e+00 0.000000e+00
    outer loop
      vertex   -8.000000e+01 -2.500000e+02 1.125984e+00
      vertex   -8.000000e+01 -2.500000e+02 2.125984e+00
      vertex   -1.800000e+02 -2.500000e+02 1.125984e+00
    endloop
  endfacet
  facet normal 0.000000e+00 -1.000000e+00 0.000000e+00
    outer loop
      vertex   -1.800000e+02 -2.500000e+02 1.125984e+00
      vertex   -8.000000e+01 -2.500000e+02 2.125984e+00
      vertex   -1.800000e+02 -2.500000e+02 2.125984e+00
    endloop
  endfacet
  facet normal -0.000000e+00 -0.000000e+00 -1.000000e+00
    outer loop
      vertex   -8.000000e+01 -1.900000e+02 1.125984e+00
      vertex   -8.000000e+01 -2.500000e+02 1.125984e+00
      vertex   -1.800000e+02 -1.900000e+02 1.125984e+00
    endloop
  endfacet
  facet normal 0.000000e+00 0.000000e+00 -1.000000e+00
    outer loop
      vertex   -1.800000e+02 -1.900000e+02 1.125984e+00
      vertex   -8.000000e+01 -2.500000e+02 1.125984e+00
      vertex   -1.800000e+02 -2.500000e+02 1.125984e+00
    endloop
  endfacet
  facet normal 0.000000e+00 1.000000e+00 0.000000e+00
    outer loop
      vertex   -8.000000e+01 -1.900000e+02 2.125984e+00
      vertex   -8.000000e+01 -1.900000e+02 1.125984e+00
      vertex   -1.800000e+02 -1.900000e+02 2.125984e+00
    endloop
  endfacet
  facet normal 0.000000e+00 1.000000e+00 0.000000e+00
    outer loop
      vertex   -1.800000e+02 -1.900000e+02 2.125984e+00
      vertex   -8.000000e+01 -1.900000e+02 1.125984e+00
      vertex   -1.800000e+02 -1.900000e+02 1.125984e+00
    endloop
  endfacet
  facet normal 0.000000e+00 -0.000000e+00 1.000000e+00
    outer loop
      vertex   -8.000000e+01 -2.500000e+02 2.125984e+00
      vertex   -8.000000e+01 -1.900000e+02 2.125984e+00
      vertex   -1.800000e+02 -2.500000e+02 2.125984e+00
    endloop
  endfacet
  facet normal 0.000000e+00 0.000000e+00 1.000000e+00
    outer loop
      vertex   -1.800000e+02 -2.500000e+02 2.125984e+00
      vertex   -8.000000e+01 -1.900000e+02 2.125984e+00
      vertex   -1.800000e+02 -1.900000e+02 2.125984e+00
    endloop
  endfacet
  facet normal -1.000000e+00 -0.000000e+00 -0.000000e+00
    outer loop
      vertex   -1.800000e+02 -1.900000e+02 2.125984e+00
      vertex   -1.800000e+02 -1.900000e+02 1.125984e+00
      vertex   -1.800000e+02 -2.500000e+02 2.125984e+00
    endloop
  endfacet
  facet normal -1.000000e+00 0.000000e+00 0.000000e+00
    outer loop
      vertex   -1.800000e+02 -2.500000e+02 2.125984e+00
      vertex   -1.800000e+02 -1.900000e+02 1.125984e+00
      vertex   -1.800000e+02 -2.500000e+02 1.125984e+00
    endloop
  endfacet
  facet normal 1.000000e+00 0.000000e+00 0.000000e+00
    outer loop
      vertex   -8.000000e+01 -1.900000e+02 2.125984e+00
      vertex   -8.000000e+01 -2.500000e+02 2.125984e+00
      vertex   -8.000000e+01 -1.900000e+02 1.125984e+00
    endloop
  endfacet
  facet normal 1.000000e+00 0.000000e+00 0.000000e+00
    outer loop
      vertex   -8.000000e+01 -1.900000e+02 1.125984e+00
      vertex   -8.000000e+01 -2.500000e+02 2.125984e+00
      vertex   -8.000000e+01 -2.500000e+02 1.125984e+00
    endloop
  endfacet
endsolid
